<mxfile host="app.diagrams.net" modified="2023-11-07T14:56:04.225Z" agent="Mozilla/5.0 (X11; Linux x86_64) AppleWebKit/537.36 (KHTML, like Gecko) Chrome/118.0.0.0 Safari/537.36" etag="VKTHjgyAbS4v9PJBEECD" version="22.0.8" type="google">
  <diagram name="008-semantic-linking" id="O0EzCrE9_i2seC9WDiSg">
    <mxGraphModel grid="1" page="1" gridSize="10" guides="1" tooltips="1" connect="1" arrows="1" fold="1" pageScale="1" pageWidth="827" pageHeight="1169" math="0" shadow="0">
      <root>
        <mxCell id="0" />
        <mxCell id="1" parent="0" />
        <mxCell id="VSZ_r1YbwB4cjB5XSmfl-58" value="&lt;div&gt;&lt;i&gt;This work is licensed under a&lt;/i&gt;&lt;/div&gt;&lt;div&gt;&lt;b&gt;&lt;i&gt;Creative Commons Attribution 4.0 International License&lt;/i&gt;&lt;/b&gt;&lt;/div&gt;" style="text;html=1;strokeColor=none;fillColor=none;align=center;verticalAlign=middle;whiteSpace=wrap;rounded=0;fontSize=20;fontFamily=Architects Daughter;" vertex="1" parent="1">
          <mxGeometry x="-40" y="470" width="1040" height="60" as="geometry" />
        </mxCell>
        <mxCell id="JQQmpW9P4jVvxB5_Ogis-1" value="" style="shape=hexagon;perimeter=hexagonPerimeter2;whiteSpace=wrap;html=1;fixedSize=1;size=70;" vertex="1" parent="1">
          <mxGeometry x="40" y="160" width="320" height="280" as="geometry" />
        </mxCell>
        <mxCell id="JQQmpW9P4jVvxB5_Ogis-2" value="" style="shape=table;startSize=30;container=1;collapsible=0;childLayout=tableLayout;strokeColor=default;fontSize=16;sketch=1;curveFitting=1;jiggle=2;fillColor=#66B2FF;" vertex="1" parent="1">
          <mxGeometry x="162" y="247" width="60" height="60" as="geometry" />
        </mxCell>
        <mxCell id="JQQmpW9P4jVvxB5_Ogis-3" value="" style="shape=tableRow;horizontal=0;startSize=0;swimlaneHead=0;swimlaneBody=0;strokeColor=inherit;top=0;left=0;bottom=0;right=0;collapsible=0;dropTarget=0;fillColor=none;points=[[0,0.5],[1,0.5]];portConstraint=eastwest;fontSize=16;sketch=1;curveFitting=1;jiggle=2;" vertex="1" parent="JQQmpW9P4jVvxB5_Ogis-2">
          <mxGeometry y="30" width="60" height="10" as="geometry" />
        </mxCell>
        <mxCell id="JQQmpW9P4jVvxB5_Ogis-4" value="" style="shape=partialRectangle;html=1;whiteSpace=wrap;connectable=0;strokeColor=inherit;overflow=hidden;fillColor=none;top=0;left=0;bottom=0;right=0;pointerEvents=1;fontSize=16;sketch=1;curveFitting=1;jiggle=2;" vertex="1" parent="JQQmpW9P4jVvxB5_Ogis-3">
          <mxGeometry width="24" height="10" as="geometry">
            <mxRectangle width="24" height="10" as="alternateBounds" />
          </mxGeometry>
        </mxCell>
        <mxCell id="JQQmpW9P4jVvxB5_Ogis-5" value="" style="shape=partialRectangle;html=1;whiteSpace=wrap;connectable=0;strokeColor=inherit;overflow=hidden;fillColor=none;top=0;left=0;bottom=0;right=0;pointerEvents=1;fontSize=16;sketch=1;curveFitting=1;jiggle=2;" vertex="1" parent="JQQmpW9P4jVvxB5_Ogis-3">
          <mxGeometry x="24" width="23" height="10" as="geometry">
            <mxRectangle width="23" height="10" as="alternateBounds" />
          </mxGeometry>
        </mxCell>
        <mxCell id="JQQmpW9P4jVvxB5_Ogis-6" value="" style="shape=partialRectangle;html=1;whiteSpace=wrap;connectable=0;strokeColor=inherit;overflow=hidden;fillColor=none;top=0;left=0;bottom=0;right=0;pointerEvents=1;fontSize=16;sketch=1;curveFitting=1;jiggle=2;" vertex="1" parent="JQQmpW9P4jVvxB5_Ogis-3">
          <mxGeometry x="47" width="13" height="10" as="geometry">
            <mxRectangle width="13" height="10" as="alternateBounds" />
          </mxGeometry>
        </mxCell>
        <mxCell id="JQQmpW9P4jVvxB5_Ogis-7" value="" style="shape=tableRow;horizontal=0;startSize=0;swimlaneHead=0;swimlaneBody=0;strokeColor=inherit;top=0;left=0;bottom=0;right=0;collapsible=0;dropTarget=0;fillColor=none;points=[[0,0.5],[1,0.5]];portConstraint=eastwest;fontSize=16;sketch=1;curveFitting=1;jiggle=2;" vertex="1" parent="JQQmpW9P4jVvxB5_Ogis-2">
          <mxGeometry y="40" width="60" height="10" as="geometry" />
        </mxCell>
        <mxCell id="JQQmpW9P4jVvxB5_Ogis-8" value="" style="shape=partialRectangle;html=1;whiteSpace=wrap;connectable=0;strokeColor=inherit;overflow=hidden;fillColor=none;top=0;left=0;bottom=0;right=0;pointerEvents=1;fontSize=16;sketch=1;curveFitting=1;jiggle=2;" vertex="1" parent="JQQmpW9P4jVvxB5_Ogis-7">
          <mxGeometry width="24" height="10" as="geometry">
            <mxRectangle width="24" height="10" as="alternateBounds" />
          </mxGeometry>
        </mxCell>
        <mxCell id="JQQmpW9P4jVvxB5_Ogis-9" value="" style="shape=partialRectangle;html=1;whiteSpace=wrap;connectable=0;strokeColor=inherit;overflow=hidden;fillColor=none;top=0;left=0;bottom=0;right=0;pointerEvents=1;fontSize=16;sketch=1;curveFitting=1;jiggle=2;" vertex="1" parent="JQQmpW9P4jVvxB5_Ogis-7">
          <mxGeometry x="24" width="23" height="10" as="geometry">
            <mxRectangle width="23" height="10" as="alternateBounds" />
          </mxGeometry>
        </mxCell>
        <mxCell id="JQQmpW9P4jVvxB5_Ogis-10" value="" style="shape=partialRectangle;html=1;whiteSpace=wrap;connectable=0;strokeColor=inherit;overflow=hidden;fillColor=none;top=0;left=0;bottom=0;right=0;pointerEvents=1;fontSize=16;sketch=1;curveFitting=1;jiggle=2;" vertex="1" parent="JQQmpW9P4jVvxB5_Ogis-7">
          <mxGeometry x="47" width="13" height="10" as="geometry">
            <mxRectangle width="13" height="10" as="alternateBounds" />
          </mxGeometry>
        </mxCell>
        <mxCell id="JQQmpW9P4jVvxB5_Ogis-11" value="" style="shape=tableRow;horizontal=0;startSize=0;swimlaneHead=0;swimlaneBody=0;strokeColor=inherit;top=0;left=0;bottom=0;right=0;collapsible=0;dropTarget=0;fillColor=none;points=[[0,0.5],[1,0.5]];portConstraint=eastwest;fontSize=16;sketch=1;curveFitting=1;jiggle=2;" vertex="1" parent="JQQmpW9P4jVvxB5_Ogis-2">
          <mxGeometry y="50" width="60" height="10" as="geometry" />
        </mxCell>
        <mxCell id="JQQmpW9P4jVvxB5_Ogis-12" value="" style="shape=partialRectangle;html=1;whiteSpace=wrap;connectable=0;strokeColor=inherit;overflow=hidden;fillColor=none;top=0;left=0;bottom=0;right=0;pointerEvents=1;fontSize=16;sketch=1;curveFitting=1;jiggle=2;" vertex="1" parent="JQQmpW9P4jVvxB5_Ogis-11">
          <mxGeometry width="24" height="10" as="geometry">
            <mxRectangle width="24" height="10" as="alternateBounds" />
          </mxGeometry>
        </mxCell>
        <mxCell id="JQQmpW9P4jVvxB5_Ogis-13" value="" style="shape=partialRectangle;html=1;whiteSpace=wrap;connectable=0;strokeColor=inherit;overflow=hidden;fillColor=none;top=0;left=0;bottom=0;right=0;pointerEvents=1;fontSize=16;sketch=1;curveFitting=1;jiggle=2;" vertex="1" parent="JQQmpW9P4jVvxB5_Ogis-11">
          <mxGeometry x="24" width="23" height="10" as="geometry">
            <mxRectangle width="23" height="10" as="alternateBounds" />
          </mxGeometry>
        </mxCell>
        <mxCell id="JQQmpW9P4jVvxB5_Ogis-14" value="" style="shape=partialRectangle;html=1;whiteSpace=wrap;connectable=0;strokeColor=inherit;overflow=hidden;fillColor=none;top=0;left=0;bottom=0;right=0;pointerEvents=1;fontSize=16;sketch=1;curveFitting=1;jiggle=2;" vertex="1" parent="JQQmpW9P4jVvxB5_Ogis-11">
          <mxGeometry x="47" width="13" height="10" as="geometry">
            <mxRectangle width="13" height="10" as="alternateBounds" />
          </mxGeometry>
        </mxCell>
        <mxCell id="JQQmpW9P4jVvxB5_Ogis-15" value="" style="shape=table;startSize=30;container=1;collapsible=0;childLayout=tableLayout;strokeColor=default;fontSize=16;sketch=1;curveFitting=1;jiggle=2;fillColor=#66B2FF;" vertex="1" parent="1">
          <mxGeometry x="84" y="247" width="60" height="60" as="geometry" />
        </mxCell>
        <mxCell id="JQQmpW9P4jVvxB5_Ogis-16" value="" style="shape=tableRow;horizontal=0;startSize=0;swimlaneHead=0;swimlaneBody=0;strokeColor=inherit;top=0;left=0;bottom=0;right=0;collapsible=0;dropTarget=0;fillColor=none;points=[[0,0.5],[1,0.5]];portConstraint=eastwest;fontSize=16;sketch=1;curveFitting=1;jiggle=2;" vertex="1" parent="JQQmpW9P4jVvxB5_Ogis-15">
          <mxGeometry y="30" width="60" height="10" as="geometry" />
        </mxCell>
        <mxCell id="JQQmpW9P4jVvxB5_Ogis-17" value="" style="shape=partialRectangle;html=1;whiteSpace=wrap;connectable=0;strokeColor=inherit;overflow=hidden;fillColor=none;top=0;left=0;bottom=0;right=0;pointerEvents=1;fontSize=16;sketch=1;curveFitting=1;jiggle=2;" vertex="1" parent="JQQmpW9P4jVvxB5_Ogis-16">
          <mxGeometry width="24" height="10" as="geometry">
            <mxRectangle width="24" height="10" as="alternateBounds" />
          </mxGeometry>
        </mxCell>
        <mxCell id="JQQmpW9P4jVvxB5_Ogis-18" value="" style="shape=partialRectangle;html=1;whiteSpace=wrap;connectable=0;strokeColor=inherit;overflow=hidden;fillColor=none;top=0;left=0;bottom=0;right=0;pointerEvents=1;fontSize=16;sketch=1;curveFitting=1;jiggle=2;" vertex="1" parent="JQQmpW9P4jVvxB5_Ogis-16">
          <mxGeometry x="24" width="23" height="10" as="geometry">
            <mxRectangle width="23" height="10" as="alternateBounds" />
          </mxGeometry>
        </mxCell>
        <mxCell id="JQQmpW9P4jVvxB5_Ogis-19" value="" style="shape=partialRectangle;html=1;whiteSpace=wrap;connectable=0;strokeColor=inherit;overflow=hidden;fillColor=none;top=0;left=0;bottom=0;right=0;pointerEvents=1;fontSize=16;sketch=1;curveFitting=1;jiggle=2;" vertex="1" parent="JQQmpW9P4jVvxB5_Ogis-16">
          <mxGeometry x="47" width="13" height="10" as="geometry">
            <mxRectangle width="13" height="10" as="alternateBounds" />
          </mxGeometry>
        </mxCell>
        <mxCell id="JQQmpW9P4jVvxB5_Ogis-20" value="" style="shape=tableRow;horizontal=0;startSize=0;swimlaneHead=0;swimlaneBody=0;strokeColor=inherit;top=0;left=0;bottom=0;right=0;collapsible=0;dropTarget=0;fillColor=none;points=[[0,0.5],[1,0.5]];portConstraint=eastwest;fontSize=16;sketch=1;curveFitting=1;jiggle=2;" vertex="1" parent="JQQmpW9P4jVvxB5_Ogis-15">
          <mxGeometry y="40" width="60" height="10" as="geometry" />
        </mxCell>
        <mxCell id="JQQmpW9P4jVvxB5_Ogis-21" value="" style="shape=partialRectangle;html=1;whiteSpace=wrap;connectable=0;strokeColor=inherit;overflow=hidden;fillColor=none;top=0;left=0;bottom=0;right=0;pointerEvents=1;fontSize=16;sketch=1;curveFitting=1;jiggle=2;" vertex="1" parent="JQQmpW9P4jVvxB5_Ogis-20">
          <mxGeometry width="24" height="10" as="geometry">
            <mxRectangle width="24" height="10" as="alternateBounds" />
          </mxGeometry>
        </mxCell>
        <mxCell id="JQQmpW9P4jVvxB5_Ogis-22" value="" style="shape=partialRectangle;html=1;whiteSpace=wrap;connectable=0;strokeColor=inherit;overflow=hidden;fillColor=none;top=0;left=0;bottom=0;right=0;pointerEvents=1;fontSize=16;sketch=1;curveFitting=1;jiggle=2;" vertex="1" parent="JQQmpW9P4jVvxB5_Ogis-20">
          <mxGeometry x="24" width="23" height="10" as="geometry">
            <mxRectangle width="23" height="10" as="alternateBounds" />
          </mxGeometry>
        </mxCell>
        <mxCell id="JQQmpW9P4jVvxB5_Ogis-23" value="" style="shape=partialRectangle;html=1;whiteSpace=wrap;connectable=0;strokeColor=inherit;overflow=hidden;fillColor=none;top=0;left=0;bottom=0;right=0;pointerEvents=1;fontSize=16;sketch=1;curveFitting=1;jiggle=2;" vertex="1" parent="JQQmpW9P4jVvxB5_Ogis-20">
          <mxGeometry x="47" width="13" height="10" as="geometry">
            <mxRectangle width="13" height="10" as="alternateBounds" />
          </mxGeometry>
        </mxCell>
        <mxCell id="JQQmpW9P4jVvxB5_Ogis-24" value="" style="shape=tableRow;horizontal=0;startSize=0;swimlaneHead=0;swimlaneBody=0;strokeColor=inherit;top=0;left=0;bottom=0;right=0;collapsible=0;dropTarget=0;fillColor=none;points=[[0,0.5],[1,0.5]];portConstraint=eastwest;fontSize=16;sketch=1;curveFitting=1;jiggle=2;" vertex="1" parent="JQQmpW9P4jVvxB5_Ogis-15">
          <mxGeometry y="50" width="60" height="10" as="geometry" />
        </mxCell>
        <mxCell id="JQQmpW9P4jVvxB5_Ogis-25" value="" style="shape=partialRectangle;html=1;whiteSpace=wrap;connectable=0;strokeColor=inherit;overflow=hidden;fillColor=none;top=0;left=0;bottom=0;right=0;pointerEvents=1;fontSize=16;sketch=1;curveFitting=1;jiggle=2;" vertex="1" parent="JQQmpW9P4jVvxB5_Ogis-24">
          <mxGeometry width="24" height="10" as="geometry">
            <mxRectangle width="24" height="10" as="alternateBounds" />
          </mxGeometry>
        </mxCell>
        <mxCell id="JQQmpW9P4jVvxB5_Ogis-26" value="" style="shape=partialRectangle;html=1;whiteSpace=wrap;connectable=0;strokeColor=inherit;overflow=hidden;fillColor=none;top=0;left=0;bottom=0;right=0;pointerEvents=1;fontSize=16;sketch=1;curveFitting=1;jiggle=2;" vertex="1" parent="JQQmpW9P4jVvxB5_Ogis-24">
          <mxGeometry x="24" width="23" height="10" as="geometry">
            <mxRectangle width="23" height="10" as="alternateBounds" />
          </mxGeometry>
        </mxCell>
        <mxCell id="JQQmpW9P4jVvxB5_Ogis-27" value="" style="shape=partialRectangle;html=1;whiteSpace=wrap;connectable=0;strokeColor=inherit;overflow=hidden;fillColor=none;top=0;left=0;bottom=0;right=0;pointerEvents=1;fontSize=16;sketch=1;curveFitting=1;jiggle=2;" vertex="1" parent="JQQmpW9P4jVvxB5_Ogis-24">
          <mxGeometry x="47" width="13" height="10" as="geometry">
            <mxRectangle width="13" height="10" as="alternateBounds" />
          </mxGeometry>
        </mxCell>
        <mxCell id="JQQmpW9P4jVvxB5_Ogis-28" value="" style="shape=table;startSize=30;container=1;collapsible=0;childLayout=tableLayout;strokeColor=default;fontSize=16;sketch=1;curveFitting=1;jiggle=2;fillColor=#66B2FF;" vertex="1" parent="1">
          <mxGeometry x="244" y="247" width="60" height="60" as="geometry" />
        </mxCell>
        <mxCell id="JQQmpW9P4jVvxB5_Ogis-29" value="" style="shape=tableRow;horizontal=0;startSize=0;swimlaneHead=0;swimlaneBody=0;strokeColor=inherit;top=0;left=0;bottom=0;right=0;collapsible=0;dropTarget=0;fillColor=none;points=[[0,0.5],[1,0.5]];portConstraint=eastwest;fontSize=16;sketch=1;curveFitting=1;jiggle=2;" vertex="1" parent="JQQmpW9P4jVvxB5_Ogis-28">
          <mxGeometry y="30" width="60" height="10" as="geometry" />
        </mxCell>
        <mxCell id="JQQmpW9P4jVvxB5_Ogis-30" value="" style="shape=partialRectangle;html=1;whiteSpace=wrap;connectable=0;strokeColor=inherit;overflow=hidden;fillColor=none;top=0;left=0;bottom=0;right=0;pointerEvents=1;fontSize=16;sketch=1;curveFitting=1;jiggle=2;" vertex="1" parent="JQQmpW9P4jVvxB5_Ogis-29">
          <mxGeometry width="24" height="10" as="geometry">
            <mxRectangle width="24" height="10" as="alternateBounds" />
          </mxGeometry>
        </mxCell>
        <mxCell id="JQQmpW9P4jVvxB5_Ogis-31" value="" style="shape=partialRectangle;html=1;whiteSpace=wrap;connectable=0;strokeColor=inherit;overflow=hidden;fillColor=none;top=0;left=0;bottom=0;right=0;pointerEvents=1;fontSize=16;sketch=1;curveFitting=1;jiggle=2;" vertex="1" parent="JQQmpW9P4jVvxB5_Ogis-29">
          <mxGeometry x="24" width="23" height="10" as="geometry">
            <mxRectangle width="23" height="10" as="alternateBounds" />
          </mxGeometry>
        </mxCell>
        <mxCell id="JQQmpW9P4jVvxB5_Ogis-32" value="" style="shape=partialRectangle;html=1;whiteSpace=wrap;connectable=0;strokeColor=inherit;overflow=hidden;fillColor=none;top=0;left=0;bottom=0;right=0;pointerEvents=1;fontSize=16;sketch=1;curveFitting=1;jiggle=2;" vertex="1" parent="JQQmpW9P4jVvxB5_Ogis-29">
          <mxGeometry x="47" width="13" height="10" as="geometry">
            <mxRectangle width="13" height="10" as="alternateBounds" />
          </mxGeometry>
        </mxCell>
        <mxCell id="JQQmpW9P4jVvxB5_Ogis-33" value="" style="shape=tableRow;horizontal=0;startSize=0;swimlaneHead=0;swimlaneBody=0;strokeColor=inherit;top=0;left=0;bottom=0;right=0;collapsible=0;dropTarget=0;fillColor=none;points=[[0,0.5],[1,0.5]];portConstraint=eastwest;fontSize=16;sketch=1;curveFitting=1;jiggle=2;" vertex="1" parent="JQQmpW9P4jVvxB5_Ogis-28">
          <mxGeometry y="40" width="60" height="10" as="geometry" />
        </mxCell>
        <mxCell id="JQQmpW9P4jVvxB5_Ogis-34" value="" style="shape=partialRectangle;html=1;whiteSpace=wrap;connectable=0;strokeColor=inherit;overflow=hidden;fillColor=none;top=0;left=0;bottom=0;right=0;pointerEvents=1;fontSize=16;sketch=1;curveFitting=1;jiggle=2;" vertex="1" parent="JQQmpW9P4jVvxB5_Ogis-33">
          <mxGeometry width="24" height="10" as="geometry">
            <mxRectangle width="24" height="10" as="alternateBounds" />
          </mxGeometry>
        </mxCell>
        <mxCell id="JQQmpW9P4jVvxB5_Ogis-35" value="" style="shape=partialRectangle;html=1;whiteSpace=wrap;connectable=0;strokeColor=inherit;overflow=hidden;fillColor=none;top=0;left=0;bottom=0;right=0;pointerEvents=1;fontSize=16;sketch=1;curveFitting=1;jiggle=2;" vertex="1" parent="JQQmpW9P4jVvxB5_Ogis-33">
          <mxGeometry x="24" width="23" height="10" as="geometry">
            <mxRectangle width="23" height="10" as="alternateBounds" />
          </mxGeometry>
        </mxCell>
        <mxCell id="JQQmpW9P4jVvxB5_Ogis-36" value="" style="shape=partialRectangle;html=1;whiteSpace=wrap;connectable=0;strokeColor=inherit;overflow=hidden;fillColor=none;top=0;left=0;bottom=0;right=0;pointerEvents=1;fontSize=16;sketch=1;curveFitting=1;jiggle=2;" vertex="1" parent="JQQmpW9P4jVvxB5_Ogis-33">
          <mxGeometry x="47" width="13" height="10" as="geometry">
            <mxRectangle width="13" height="10" as="alternateBounds" />
          </mxGeometry>
        </mxCell>
        <mxCell id="JQQmpW9P4jVvxB5_Ogis-37" value="" style="shape=tableRow;horizontal=0;startSize=0;swimlaneHead=0;swimlaneBody=0;strokeColor=inherit;top=0;left=0;bottom=0;right=0;collapsible=0;dropTarget=0;fillColor=none;points=[[0,0.5],[1,0.5]];portConstraint=eastwest;fontSize=16;sketch=1;curveFitting=1;jiggle=2;" vertex="1" parent="JQQmpW9P4jVvxB5_Ogis-28">
          <mxGeometry y="50" width="60" height="10" as="geometry" />
        </mxCell>
        <mxCell id="JQQmpW9P4jVvxB5_Ogis-38" value="" style="shape=partialRectangle;html=1;whiteSpace=wrap;connectable=0;strokeColor=inherit;overflow=hidden;fillColor=none;top=0;left=0;bottom=0;right=0;pointerEvents=1;fontSize=16;sketch=1;curveFitting=1;jiggle=2;" vertex="1" parent="JQQmpW9P4jVvxB5_Ogis-37">
          <mxGeometry width="24" height="10" as="geometry">
            <mxRectangle width="24" height="10" as="alternateBounds" />
          </mxGeometry>
        </mxCell>
        <mxCell id="JQQmpW9P4jVvxB5_Ogis-39" value="" style="shape=partialRectangle;html=1;whiteSpace=wrap;connectable=0;strokeColor=inherit;overflow=hidden;fillColor=none;top=0;left=0;bottom=0;right=0;pointerEvents=1;fontSize=16;sketch=1;curveFitting=1;jiggle=2;" vertex="1" parent="JQQmpW9P4jVvxB5_Ogis-37">
          <mxGeometry x="24" width="23" height="10" as="geometry">
            <mxRectangle width="23" height="10" as="alternateBounds" />
          </mxGeometry>
        </mxCell>
        <mxCell id="JQQmpW9P4jVvxB5_Ogis-40" value="" style="shape=partialRectangle;html=1;whiteSpace=wrap;connectable=0;strokeColor=inherit;overflow=hidden;fillColor=none;top=0;left=0;bottom=0;right=0;pointerEvents=1;fontSize=16;sketch=1;curveFitting=1;jiggle=2;" vertex="1" parent="JQQmpW9P4jVvxB5_Ogis-37">
          <mxGeometry x="47" width="13" height="10" as="geometry">
            <mxRectangle width="13" height="10" as="alternateBounds" />
          </mxGeometry>
        </mxCell>
        <mxCell id="JQQmpW9P4jVvxB5_Ogis-41" value="" style="shape=datastore;whiteSpace=wrap;html=1;sketch=1;curveFitting=1;jiggle=2;fillColor=#FFFF00;" vertex="1" parent="1">
          <mxGeometry x="140" y="348" width="110" height="60" as="geometry" />
        </mxCell>
        <mxCell id="JQQmpW9P4jVvxB5_Ogis-42" value="" style="shape=delay;whiteSpace=wrap;html=1;sketch=1;curveFitting=1;jiggle=2;fillColor=#FF8000;" vertex="1" parent="1">
          <mxGeometry x="128" y="188" width="30" height="20" as="geometry" />
        </mxCell>
        <mxCell id="JQQmpW9P4jVvxB5_Ogis-43" value="" style="shape=delay;whiteSpace=wrap;html=1;sketch=1;curveFitting=1;jiggle=2;fillColor=#FF8000;" vertex="1" parent="1">
          <mxGeometry x="163" y="188" width="30" height="20" as="geometry" />
        </mxCell>
        <mxCell id="JQQmpW9P4jVvxB5_Ogis-44" value="" style="shape=delay;whiteSpace=wrap;html=1;sketch=1;curveFitting=1;jiggle=2;fillColor=#FFB570;" vertex="1" parent="1">
          <mxGeometry x="198" y="188" width="30" height="20" as="geometry" />
        </mxCell>
        <mxCell id="JQQmpW9P4jVvxB5_Ogis-45" value="" style="shape=delay;whiteSpace=wrap;html=1;sketch=1;curveFitting=1;jiggle=2;fillColor=#FF8000;" vertex="1" parent="1">
          <mxGeometry x="234" y="188" width="30" height="20" as="geometry" />
        </mxCell>
        <mxCell id="JQQmpW9P4jVvxB5_Ogis-46" value="" style="shape=note;whiteSpace=wrap;html=1;backgroundOutline=1;darkOpacity=0.05;sketch=1;curveFitting=1;jiggle=2;strokeColor=#808080;" vertex="1" parent="1">
          <mxGeometry x="380" y="160" width="150" height="280" as="geometry" />
        </mxCell>
        <mxCell id="JQQmpW9P4jVvxB5_Ogis-47" value="Data Contract &lt;br&gt;(aka Ports)" style="text;html=1;strokeColor=default;fillColor=#66B2FF;align=center;verticalAlign=middle;whiteSpace=wrap;rounded=0;sketch=1;curveFitting=1;jiggle=2;glass=0;shadow=0;strokeWidth=1;fontStyle=1" vertex="1" parent="1">
          <mxGeometry x="395" y="252" width="120" height="38" as="geometry" />
        </mxCell>
        <mxCell id="JQQmpW9P4jVvxB5_Ogis-48" value="Application Resources" style="text;html=1;strokeColor=default;fillColor=#FF8000;align=center;verticalAlign=middle;whiteSpace=wrap;rounded=0;sketch=1;curveFitting=1;jiggle=2;fontStyle=2" vertex="1" parent="1">
          <mxGeometry x="395" y="313" width="120" height="38" as="geometry" />
        </mxCell>
        <mxCell id="JQQmpW9P4jVvxB5_Ogis-49" value="Infrastructural Resources" style="text;html=1;strokeColor=default;fillColor=#FFFF00;align=center;verticalAlign=middle;whiteSpace=wrap;rounded=0;sketch=1;curveFitting=1;jiggle=2;fontStyle=2" vertex="1" parent="1">
          <mxGeometry x="395" y="372" width="120" height="38" as="geometry" />
        </mxCell>
        <mxCell id="JQQmpW9P4jVvxB5_Ogis-50" value="Data Product Descriptor" style="text;html=1;strokeColor=none;fillColor=none;align=center;verticalAlign=middle;whiteSpace=wrap;rounded=0;sketch=1;curveFitting=1;jiggle=2;fontStyle=1" vertex="1" parent="1">
          <mxGeometry x="395" y="200" width="120" height="38" as="geometry" />
        </mxCell>
        <mxCell id="JQQmpW9P4jVvxB5_Ogis-51" value="" style="shape=note;whiteSpace=wrap;html=1;backgroundOutline=1;darkOpacity=0.05;sketch=1;curveFitting=1;jiggle=2;strokeColor=#808080;" vertex="1" parent="1">
          <mxGeometry x="550" y="160" width="150" height="280" as="geometry" />
        </mxCell>
        <mxCell id="JQQmpW9P4jVvxB5_Ogis-52" value="API" style="text;html=1;strokeColor=default;fillColor=#66B2FF;align=center;verticalAlign=middle;whiteSpace=wrap;rounded=0;sketch=1;curveFitting=1;jiggle=2;glass=0;shadow=0;strokeWidth=1;fontStyle=1" vertex="1" parent="1">
          <mxGeometry x="565" y="252" width="120" height="38" as="geometry" />
        </mxCell>
        <mxCell id="JQQmpW9P4jVvxB5_Ogis-53" value="Promises &lt;br&gt;(ex. SLO)" style="text;html=1;strokeColor=default;fillColor=#B3B3B3;align=center;verticalAlign=middle;whiteSpace=wrap;rounded=0;sketch=1;curveFitting=1;jiggle=2;fontStyle=2" vertex="1" parent="1">
          <mxGeometry x="565" y="313" width="120" height="38" as="geometry" />
        </mxCell>
        <mxCell id="JQQmpW9P4jVvxB5_Ogis-54" value="&lt;div&gt;Expectations​&lt;/div&gt;&lt;div&gt;&lt;span style=&quot;background-color: initial;&quot;&gt;(ex.Terms &amp;amp; Cond.)​&lt;/span&gt;&lt;br&gt;&lt;/div&gt;" style="text;html=1;strokeColor=default;fillColor=#B3B3B3;align=center;verticalAlign=middle;whiteSpace=wrap;rounded=0;sketch=1;curveFitting=1;jiggle=2;fontStyle=2" vertex="1" parent="1">
          <mxGeometry x="565" y="372" width="120" height="38" as="geometry" />
        </mxCell>
        <mxCell id="JQQmpW9P4jVvxB5_Ogis-55" value="Data Contract" style="text;html=1;strokeColor=none;fillColor=none;align=center;verticalAlign=middle;whiteSpace=wrap;rounded=0;sketch=1;curveFitting=1;jiggle=2;fontStyle=1" vertex="1" parent="1">
          <mxGeometry x="565" y="200" width="120" height="38" as="geometry" />
        </mxCell>
        <mxCell id="JQQmpW9P4jVvxB5_Ogis-56" value="" style="shape=note;whiteSpace=wrap;html=1;backgroundOutline=1;darkOpacity=0.05;sketch=1;curveFitting=1;jiggle=2;strokeColor=#808080;" vertex="1" parent="1">
          <mxGeometry x="720" y="160" width="150" height="280" as="geometry" />
        </mxCell>
        <mxCell id="JQQmpW9P4jVvxB5_Ogis-57" value="Data Schemas" style="text;html=1;strokeColor=default;fillColor=#66B2FF;align=center;verticalAlign=middle;whiteSpace=wrap;rounded=0;sketch=1;curveFitting=1;jiggle=2;glass=0;shadow=0;strokeWidth=1;fontStyle=1" vertex="1" parent="1">
          <mxGeometry x="735" y="252" width="120" height="38" as="geometry" />
        </mxCell>
        <mxCell id="JQQmpW9P4jVvxB5_Ogis-58" value="Security Schemas&amp;nbsp;" style="text;html=1;strokeColor=default;fillColor=#B3B3B3;align=center;verticalAlign=middle;whiteSpace=wrap;rounded=0;sketch=1;curveFitting=1;jiggle=2;fontStyle=2" vertex="1" parent="1">
          <mxGeometry x="735" y="372" width="120" height="38" as="geometry" />
        </mxCell>
        <mxCell id="JQQmpW9P4jVvxB5_Ogis-59" value="&lt;div&gt;Server &amp;amp; Endpoints&lt;/div&gt;" style="text;html=1;strokeColor=default;fillColor=#B3B3B3;align=center;verticalAlign=middle;whiteSpace=wrap;rounded=0;sketch=1;curveFitting=1;jiggle=2;fontStyle=2" vertex="1" parent="1">
          <mxGeometry x="735" y="313" width="120" height="38" as="geometry" />
        </mxCell>
        <mxCell id="JQQmpW9P4jVvxB5_Ogis-60" value="API" style="text;html=1;strokeColor=none;fillColor=none;align=center;verticalAlign=middle;whiteSpace=wrap;rounded=0;sketch=1;curveFitting=1;jiggle=2;fontStyle=1" vertex="1" parent="1">
          <mxGeometry x="735" y="200" width="120" height="38" as="geometry" />
        </mxCell>
        <mxCell id="JQQmpW9P4jVvxB5_Ogis-61" value="" style="shape=flexArrow;endArrow=classic;html=1;rounded=0;sketch=1;curveFitting=1;jiggle=2;fillColor=#999999;" edge="1" parent="1">
          <mxGeometry width="50" height="50" relative="1" as="geometry">
            <mxPoint x="330" y="299.5" as="sourcePoint" />
            <mxPoint x="390" y="299.5" as="targetPoint" />
          </mxGeometry>
        </mxCell>
        <mxCell id="JQQmpW9P4jVvxB5_Ogis-62" value="" style="shape=flexArrow;endArrow=classic;html=1;rounded=0;sketch=1;curveFitting=1;jiggle=2;fillColor=#999999;" edge="1" parent="1">
          <mxGeometry width="50" height="50" relative="1" as="geometry">
            <mxPoint x="518" y="270.5" as="sourcePoint" />
            <mxPoint x="558" y="270.5" as="targetPoint" />
          </mxGeometry>
        </mxCell>
        <mxCell id="JQQmpW9P4jVvxB5_Ogis-63" value="" style="shape=flexArrow;endArrow=classic;html=1;rounded=0;sketch=1;curveFitting=1;jiggle=2;fillColor=#999999;" edge="1" parent="1">
          <mxGeometry width="50" height="50" relative="1" as="geometry">
            <mxPoint x="688" y="273.5" as="sourcePoint" />
            <mxPoint x="728" y="273.5" as="targetPoint" />
          </mxGeometry>
        </mxCell>
        <mxCell id="JQQmpW9P4jVvxB5_Ogis-64" value="" style="rounded=0;whiteSpace=wrap;html=1;sketch=1;curveFitting=1;jiggle=2;strokeColor=#B3B3B3;" vertex="1" parent="1">
          <mxGeometry x="70" y="-180" width="810" height="230" as="geometry" />
        </mxCell>
        <mxCell id="JQQmpW9P4jVvxB5_Ogis-65" value="" style="ellipse;whiteSpace=wrap;html=1;aspect=fixed;sketch=1;curveFitting=1;jiggle=2;strokeColor=#009900;fillColor=#009900;" vertex="1" parent="1">
          <mxGeometry x="198" y="-20" width="40" height="40" as="geometry" />
        </mxCell>
        <mxCell id="JQQmpW9P4jVvxB5_Ogis-66" value="" style="ellipse;whiteSpace=wrap;html=1;aspect=fixed;sketch=1;curveFitting=1;jiggle=2;strokeColor=#009900;fillColor=#009900;" vertex="1" parent="1">
          <mxGeometry x="310" y="-110" width="70" height="70" as="geometry" />
        </mxCell>
        <mxCell id="JQQmpW9P4jVvxB5_Ogis-67" value="" style="ellipse;whiteSpace=wrap;html=1;aspect=fixed;sketch=1;curveFitting=1;jiggle=2;strokeColor=#009900;fillColor=#009900;" vertex="1" parent="1">
          <mxGeometry x="128" y="-91" width="50" height="50" as="geometry" />
        </mxCell>
        <mxCell id="JQQmpW9P4jVvxB5_Ogis-68" value="" style="ellipse;whiteSpace=wrap;html=1;aspect=fixed;sketch=1;curveFitting=1;jiggle=2;strokeColor=#009900;fillColor=#009900;" vertex="1" parent="1">
          <mxGeometry x="400" y="-60" width="50" height="50" as="geometry" />
        </mxCell>
        <mxCell id="JQQmpW9P4jVvxB5_Ogis-69" value="" style="ellipse;whiteSpace=wrap;html=1;aspect=fixed;sketch=1;curveFitting=1;jiggle=2;strokeColor=#009900;fillColor=#009900;" vertex="1" parent="1">
          <mxGeometry x="303" width="30" height="30" as="geometry" />
        </mxCell>
        <mxCell id="JQQmpW9P4jVvxB5_Ogis-70" value="" style="endArrow=classic;html=1;rounded=0;entryX=0;entryY=0.714;entryDx=0;entryDy=0;entryPerimeter=0;exitX=1;exitY=0;exitDx=0;exitDy=0;sketch=1;curveFitting=1;jiggle=2;" edge="1" parent="1" source="JQQmpW9P4jVvxB5_Ogis-65" target="JQQmpW9P4jVvxB5_Ogis-66">
          <mxGeometry width="50" height="50" relative="1" as="geometry">
            <mxPoint x="260" y="-30" as="sourcePoint" />
            <mxPoint x="480" y="260" as="targetPoint" />
          </mxGeometry>
        </mxCell>
        <mxCell id="JQQmpW9P4jVvxB5_Ogis-71" value="" style="endArrow=classic;html=1;rounded=0;entryX=1;entryY=1;entryDx=0;entryDy=0;exitX=0;exitY=0;exitDx=0;exitDy=0;sketch=1;curveFitting=1;jiggle=2;" edge="1" parent="1" source="JQQmpW9P4jVvxB5_Ogis-65" target="JQQmpW9P4jVvxB5_Ogis-67">
          <mxGeometry width="50" height="50" relative="1" as="geometry">
            <mxPoint x="230" y="-30" as="sourcePoint" />
            <mxPoint x="480" y="260" as="targetPoint" />
          </mxGeometry>
        </mxCell>
        <mxCell id="JQQmpW9P4jVvxB5_Ogis-72" value="" style="endArrow=classic;html=1;rounded=0;exitX=0.975;exitY=0.7;exitDx=0;exitDy=0;entryX=0;entryY=0.5;entryDx=0;entryDy=0;exitPerimeter=0;sketch=1;curveFitting=1;jiggle=2;" edge="1" parent="1" source="JQQmpW9P4jVvxB5_Ogis-65" target="JQQmpW9P4jVvxB5_Ogis-69">
          <mxGeometry width="50" height="50" relative="1" as="geometry">
            <mxPoint x="430" y="310" as="sourcePoint" />
            <mxPoint x="480" y="260" as="targetPoint" />
          </mxGeometry>
        </mxCell>
        <mxCell id="JQQmpW9P4jVvxB5_Ogis-73" value="" style="endArrow=classic;html=1;rounded=0;entryX=0.5;entryY=0;entryDx=0;entryDy=0;exitX=0.5;exitY=1;exitDx=0;exitDy=0;sketch=1;curveFitting=1;jiggle=2;" edge="1" parent="1" source="JQQmpW9P4jVvxB5_Ogis-66" target="JQQmpW9P4jVvxB5_Ogis-69">
          <mxGeometry width="50" height="50" relative="1" as="geometry">
            <mxPoint x="430" y="310" as="sourcePoint" />
            <mxPoint x="480" y="260" as="targetPoint" />
          </mxGeometry>
        </mxCell>
        <mxCell id="JQQmpW9P4jVvxB5_Ogis-74" value="" style="endArrow=classic;html=1;rounded=0;exitX=1;exitY=0.5;exitDx=0;exitDy=0;entryX=0;entryY=0.5;entryDx=0;entryDy=0;sketch=1;curveFitting=1;jiggle=2;" edge="1" parent="1" source="JQQmpW9P4jVvxB5_Ogis-66" target="JQQmpW9P4jVvxB5_Ogis-68">
          <mxGeometry width="50" height="50" relative="1" as="geometry">
            <mxPoint x="430" y="310" as="sourcePoint" />
            <mxPoint x="480" y="260" as="targetPoint" />
          </mxGeometry>
        </mxCell>
        <mxCell id="JQQmpW9P4jVvxB5_Ogis-75" value="Federated &lt;br&gt;modeling &lt;br&gt;team" style="shape=umlActor;verticalLabelPosition=bottom;verticalAlign=top;html=1;outlineConnect=0;sketch=1;curveFitting=1;jiggle=2;fillColor=#009900;strokeColor=#000000;fillStyle=solid;" vertex="1" parent="1">
          <mxGeometry x="-30" y="-80" width="30" height="60" as="geometry" />
        </mxCell>
        <mxCell id="JQQmpW9P4jVvxB5_Ogis-76" value="" style="ellipse;whiteSpace=wrap;html=1;aspect=fixed;sketch=1;curveFitting=1;jiggle=2;strokeColor=#009900;fillColor=#009900;" vertex="1" parent="1">
          <mxGeometry x="490" y="-30" width="40" height="40" as="geometry" />
        </mxCell>
        <mxCell id="JQQmpW9P4jVvxB5_Ogis-77" value="" style="ellipse;whiteSpace=wrap;html=1;aspect=fixed;sketch=1;curveFitting=1;jiggle=2;strokeColor=#009900;fillColor=#009900;" vertex="1" parent="1">
          <mxGeometry x="479" y="-110" width="30" height="30" as="geometry" />
        </mxCell>
        <mxCell id="JQQmpW9P4jVvxB5_Ogis-78" value="" style="endArrow=classic;html=1;rounded=0;entryX=0;entryY=0.5;entryDx=0;entryDy=0;sketch=1;curveFitting=1;jiggle=2;" edge="1" parent="1" source="JQQmpW9P4jVvxB5_Ogis-68" target="JQQmpW9P4jVvxB5_Ogis-77">
          <mxGeometry width="50" height="50" relative="1" as="geometry">
            <mxPoint x="274" y="-14" as="sourcePoint" />
            <mxPoint x="320" y="-50" as="targetPoint" />
          </mxGeometry>
        </mxCell>
        <mxCell id="JQQmpW9P4jVvxB5_Ogis-79" value="" style="endArrow=classic;html=1;rounded=0;entryX=0;entryY=0.5;entryDx=0;entryDy=0;sketch=1;curveFitting=1;jiggle=2;" edge="1" parent="1" source="JQQmpW9P4jVvxB5_Ogis-68" target="JQQmpW9P4jVvxB5_Ogis-76">
          <mxGeometry width="50" height="50" relative="1" as="geometry">
            <mxPoint x="279" y="8" as="sourcePoint" />
            <mxPoint x="313" y="25" as="targetPoint" />
          </mxGeometry>
        </mxCell>
        <mxCell id="JQQmpW9P4jVvxB5_Ogis-80" value="Data product&lt;br&gt;teams" style="shape=umlActor;verticalLabelPosition=bottom;verticalAlign=top;html=1;outlineConnect=0;sketch=1;curveFitting=1;jiggle=2;fillColor=#0066CC;strokeColor=#000000;fillStyle=solid;" vertex="1" parent="1">
          <mxGeometry x="-30" y="260" width="30" height="60" as="geometry" />
        </mxCell>
        <mxCell id="JQQmpW9P4jVvxB5_Ogis-81" value="" style="shape=flexArrow;endArrow=classic;html=1;rounded=0;sketch=1;curveFitting=1;jiggle=2;fillColor=#99004D;endWidth=29;endSize=6.97;" edge="1" parent="1" target="JQQmpW9P4jVvxB5_Ogis-64">
          <mxGeometry width="50" height="50" relative="1" as="geometry">
            <mxPoint x="860" y="270" as="sourcePoint" />
            <mxPoint x="840" y="70" as="targetPoint" />
            <Array as="points">
              <mxPoint x="920" y="270" />
              <mxPoint x="920" y="-40" />
            </Array>
          </mxGeometry>
        </mxCell>
        <mxCell id="JQQmpW9P4jVvxB5_Ogis-82" value="" style="ellipse;whiteSpace=wrap;html=1;aspect=fixed;sketch=1;curveFitting=1;jiggle=2;strokeColor=#009900;fillColor=#009900;" vertex="1" parent="1">
          <mxGeometry x="685" y="-80" width="50" height="50" as="geometry" />
        </mxCell>
        <mxCell id="JQQmpW9P4jVvxB5_Ogis-83" value="" style="ellipse;whiteSpace=wrap;html=1;aspect=fixed;sketch=1;curveFitting=1;jiggle=2;strokeColor=#009900;fillColor=#009900;" vertex="1" parent="1">
          <mxGeometry x="580" y="-90" width="40" height="40" as="geometry" />
        </mxCell>
        <mxCell id="JQQmpW9P4jVvxB5_Ogis-84" value="" style="ellipse;whiteSpace=wrap;html=1;aspect=fixed;sketch=1;curveFitting=1;jiggle=2;strokeColor=#009900;fillColor=#009900;" vertex="1" parent="1">
          <mxGeometry x="750" y="-20" width="40" height="40" as="geometry" />
        </mxCell>
        <mxCell id="JQQmpW9P4jVvxB5_Ogis-85" value="" style="ellipse;whiteSpace=wrap;html=1;aspect=fixed;sketch=1;curveFitting=1;jiggle=2;strokeColor=#009900;fillColor=#009900;" vertex="1" parent="1">
          <mxGeometry x="760" y="-91" width="30" height="30" as="geometry" />
        </mxCell>
        <mxCell id="JQQmpW9P4jVvxB5_Ogis-86" value="" style="ellipse;whiteSpace=wrap;html=1;aspect=fixed;sketch=1;curveFitting=1;jiggle=2;strokeColor=#009900;fillColor=#009900;" vertex="1" parent="1">
          <mxGeometry x="660" y="-10" width="30" height="30" as="geometry" />
        </mxCell>
        <mxCell id="JQQmpW9P4jVvxB5_Ogis-87" value="" style="endArrow=classic;html=1;rounded=0;sketch=1;hachureGap=4;jiggle=2;curveFitting=1;fontFamily=Architects Daughter;fontSource=https%3A%2F%2Ffonts.googleapis.com%2Fcss%3Ffamily%3DArchitects%2BDaughter;fontSize=16;entryX=0;entryY=0.5;entryDx=0;entryDy=0;exitX=1;exitY=0.5;exitDx=0;exitDy=0;" edge="1" parent="1" source="JQQmpW9P4jVvxB5_Ogis-77" target="JQQmpW9P4jVvxB5_Ogis-83">
          <mxGeometry width="50" height="50" relative="1" as="geometry">
            <mxPoint x="440" y="250" as="sourcePoint" />
            <mxPoint x="490" y="200" as="targetPoint" />
          </mxGeometry>
        </mxCell>
        <mxCell id="JQQmpW9P4jVvxB5_Ogis-88" value="" style="endArrow=classic;html=1;rounded=0;sketch=1;hachureGap=4;jiggle=2;curveFitting=1;fontFamily=Architects Daughter;fontSource=https%3A%2F%2Ffonts.googleapis.com%2Fcss%3Ffamily%3DArchitects%2BDaughter;fontSize=16;entryX=0;entryY=0.5;entryDx=0;entryDy=0;exitX=1;exitY=0.5;exitDx=0;exitDy=0;" edge="1" parent="1" source="JQQmpW9P4jVvxB5_Ogis-76" target="JQQmpW9P4jVvxB5_Ogis-86">
          <mxGeometry width="50" height="50" relative="1" as="geometry">
            <mxPoint x="519" y="-85" as="sourcePoint" />
            <mxPoint x="590" y="-60" as="targetPoint" />
          </mxGeometry>
        </mxCell>
        <mxCell id="JQQmpW9P4jVvxB5_Ogis-89" value="" style="endArrow=classic;html=1;rounded=0;sketch=1;hachureGap=4;jiggle=2;curveFitting=1;fontFamily=Architects Daughter;fontSource=https%3A%2F%2Ffonts.googleapis.com%2Fcss%3Ffamily%3DArchitects%2BDaughter;fontSize=16;entryX=0;entryY=0;entryDx=0;entryDy=0;" edge="1" parent="1" source="JQQmpW9P4jVvxB5_Ogis-83" target="JQQmpW9P4jVvxB5_Ogis-86">
          <mxGeometry width="50" height="50" relative="1" as="geometry">
            <mxPoint x="529" y="-75" as="sourcePoint" />
            <mxPoint x="600" y="-50" as="targetPoint" />
          </mxGeometry>
        </mxCell>
        <mxCell id="JQQmpW9P4jVvxB5_Ogis-90" value="" style="endArrow=classic;html=1;rounded=0;sketch=1;hachureGap=4;jiggle=2;curveFitting=1;fontFamily=Architects Daughter;fontSource=https%3A%2F%2Ffonts.googleapis.com%2Fcss%3Ffamily%3DArchitects%2BDaughter;fontSize=16;exitX=1;exitY=0.5;exitDx=0;exitDy=0;" edge="1" parent="1" source="JQQmpW9P4jVvxB5_Ogis-83" target="JQQmpW9P4jVvxB5_Ogis-82">
          <mxGeometry width="50" height="50" relative="1" as="geometry">
            <mxPoint x="539" y="-65" as="sourcePoint" />
            <mxPoint x="610" y="-40" as="targetPoint" />
          </mxGeometry>
        </mxCell>
        <mxCell id="JQQmpW9P4jVvxB5_Ogis-91" value="" style="endArrow=classic;html=1;rounded=0;sketch=1;hachureGap=4;jiggle=2;curveFitting=1;fontFamily=Architects Daughter;fontSource=https%3A%2F%2Ffonts.googleapis.com%2Fcss%3Ffamily%3DArchitects%2BDaughter;fontSize=16;entryX=1;entryY=0.5;entryDx=0;entryDy=0;exitX=0;exitY=0.5;exitDx=0;exitDy=0;" edge="1" parent="1" source="JQQmpW9P4jVvxB5_Ogis-85" target="JQQmpW9P4jVvxB5_Ogis-82">
          <mxGeometry width="50" height="50" relative="1" as="geometry">
            <mxPoint x="549" y="-55" as="sourcePoint" />
            <mxPoint x="620" y="-30" as="targetPoint" />
          </mxGeometry>
        </mxCell>
        <mxCell id="JQQmpW9P4jVvxB5_Ogis-92" value="" style="endArrow=classic;html=1;rounded=0;sketch=1;hachureGap=4;jiggle=2;curveFitting=1;fontFamily=Architects Daughter;fontSource=https%3A%2F%2Ffonts.googleapis.com%2Fcss%3Ffamily%3DArchitects%2BDaughter;fontSize=16;entryX=0;entryY=0;entryDx=0;entryDy=0;exitX=1;exitY=1;exitDx=0;exitDy=0;" edge="1" parent="1" source="JQQmpW9P4jVvxB5_Ogis-82" target="JQQmpW9P4jVvxB5_Ogis-84">
          <mxGeometry width="50" height="50" relative="1" as="geometry">
            <mxPoint x="559" y="-45" as="sourcePoint" />
            <mxPoint x="630" y="-20" as="targetPoint" />
          </mxGeometry>
        </mxCell>
        <mxCell id="JQQmpW9P4jVvxB5_Ogis-93" value="&lt;b&gt;Semantic Linking&lt;/b&gt; through schema annotation" style="text;html=1;strokeColor=none;fillColor=none;align=center;verticalAlign=middle;whiteSpace=wrap;rounded=0;fontSize=20;fontFamily=Architects Daughter;fontColor=#99004D;" vertex="1" parent="1">
          <mxGeometry x="720" y="40" width="200" height="130" as="geometry" />
        </mxCell>
        <mxCell id="JQQmpW9P4jVvxB5_Ogis-94" value="&lt;font style=&quot;font-size: 12px;&quot;&gt;applications&lt;/font&gt;" style="text;html=1;strokeColor=none;fillColor=none;align=center;verticalAlign=middle;whiteSpace=wrap;rounded=0;fontSize=20;fontFamily=Architects Daughter;" vertex="1" parent="1">
          <mxGeometry x="162" y="204" width="60" height="30" as="geometry" />
        </mxCell>
        <mxCell id="JQQmpW9P4jVvxB5_Ogis-95" value="&lt;font style=&quot;font-size: 12px;&quot;&gt;data&lt;/font&gt;" style="text;html=1;strokeColor=none;fillColor=none;align=center;verticalAlign=middle;whiteSpace=wrap;rounded=0;fontSize=20;fontFamily=Architects Daughter;" vertex="1" parent="1">
          <mxGeometry x="165" y="307" width="60" height="30" as="geometry" />
        </mxCell>
        <mxCell id="JQQmpW9P4jVvxB5_Ogis-96" value="&lt;font style=&quot;font-size: 12px;&quot;&gt;infrastructure&lt;/font&gt;" style="text;html=1;strokeColor=none;fillColor=none;align=center;verticalAlign=middle;whiteSpace=wrap;rounded=0;fontSize=20;fontFamily=Architects Daughter;" vertex="1" parent="1">
          <mxGeometry x="158" y="410" width="60" height="30" as="geometry" />
        </mxCell>
        <mxCell id="JQQmpW9P4jVvxB5_Ogis-97" value="Data Product" style="text;html=1;strokeColor=none;fillColor=none;align=center;verticalAlign=middle;whiteSpace=wrap;rounded=0;sketch=1;curveFitting=1;jiggle=2;fontStyle=1" vertex="1" parent="1">
          <mxGeometry x="108" y="120" width="182" height="38" as="geometry" />
        </mxCell>
        <mxCell id="JQQmpW9P4jVvxB5_Ogis-98" value="&lt;font color=&quot;#009900&quot; style=&quot;font-size: 32px;&quot; data-font-src=&quot;https://fonts.googleapis.com/css?family=Caveat&quot; face=&quot;Caveat&quot;&gt;Shared Ontology&lt;br&gt;&lt;/font&gt;" style="text;html=1;strokeColor=none;fillColor=none;align=center;verticalAlign=middle;whiteSpace=wrap;rounded=0;" vertex="1" parent="1">
          <mxGeometry x="90" y="-170" width="770" height="40" as="geometry" />
        </mxCell>
        <mxCell id="JQQmpW9P4jVvxB5_Ogis-99" value="" style="shape=flexArrow;endArrow=classic;html=1;rounded=0;sketch=1;curveFitting=1;jiggle=2;fillColor=#808080;" edge="1" parent="1">
          <mxGeometry width="50" height="50" relative="1" as="geometry">
            <mxPoint x="20" y="-26.5" as="sourcePoint" />
            <mxPoint x="117" y="-26.5" as="targetPoint" />
          </mxGeometry>
        </mxCell>
        <mxCell id="JQQmpW9P4jVvxB5_Ogis-100" value="&lt;b&gt;&lt;font color=&quot;#009900&quot;&gt;conceptual modeling&lt;/font&gt;&lt;/b&gt;" style="text;html=1;strokeColor=none;fillColor=none;align=center;verticalAlign=middle;whiteSpace=wrap;rounded=0;" vertex="1" parent="1">
          <mxGeometry x="10" y="-74.5" width="110" height="30" as="geometry" />
        </mxCell>
        <mxCell id="JQQmpW9P4jVvxB5_Ogis-101" value="" style="shape=flexArrow;endArrow=classic;html=1;rounded=0;sketch=1;curveFitting=1;jiggle=2;fillColor=#808080;" edge="1" parent="1">
          <mxGeometry width="50" height="50" relative="1" as="geometry">
            <mxPoint x="10" y="294.5" as="sourcePoint" />
            <mxPoint x="70" y="295" as="targetPoint" />
          </mxGeometry>
        </mxCell>
        <mxCell id="JQQmpW9P4jVvxB5_Ogis-102" value="&lt;b&gt;&lt;font&gt;physical modeling&amp;nbsp;&lt;/font&gt;&lt;/b&gt;" style="text;html=1;strokeColor=none;fillColor=none;align=center;verticalAlign=middle;whiteSpace=wrap;rounded=0;fontColor=#0066CC;" vertex="1" parent="1">
          <mxGeometry y="246.5" width="60" height="30" as="geometry" />
        </mxCell>
        <mxCell id="JQQmpW9P4jVvxB5_Ogis-103" value="Data product&lt;br&gt;teams" style="shape=umlActor;verticalLabelPosition=bottom;verticalAlign=top;html=1;outlineConnect=0;sketch=1;curveFitting=1;jiggle=2;fillColor=#0066CC;strokeColor=#000000;fillStyle=solid;" vertex="1" parent="1">
          <mxGeometry x="950" y="70" width="30" height="60" as="geometry" />
        </mxCell>
      </root>
    </mxGraphModel>
  </diagram>
</mxfile>
